<mxfile host="app.diagrams.net" modified="2023-01-31T13:14:20.151Z" agent="5.0 (Windows NT 10.0; Win64; x64) AppleWebKit/537.36 (KHTML, like Gecko) Chrome/109.0.0.0 Safari/537.36" etag="Z6DyrpUyeriaCNoMixJU" version="20.8.13" type="github">
  <diagram id="prtHgNgQTEPvFCAcTncT" name="Page-1">
    <mxGraphModel dx="1434" dy="926" grid="1" gridSize="10" guides="1" tooltips="1" connect="1" arrows="1" fold="1" page="1" pageScale="1" pageWidth="827" pageHeight="1169" math="0" shadow="0">
      <root>
        <mxCell id="0" />
        <mxCell id="1" parent="0" />
        <mxCell id="Ds-Zj9vlohc3zKlkYxut-1" value="Client Code" style="swimlane;whiteSpace=wrap;html=1;" vertex="1" parent="1">
          <mxGeometry x="10" y="100" width="300" height="990" as="geometry" />
        </mxCell>
        <mxCell id="Ds-Zj9vlohc3zKlkYxut-15" style="edgeStyle=orthogonalEdgeStyle;rounded=0;orthogonalLoop=1;jettySize=auto;html=1;" edge="1" parent="Ds-Zj9vlohc3zKlkYxut-1" source="Ds-Zj9vlohc3zKlkYxut-7" target="Ds-Zj9vlohc3zKlkYxut-13">
          <mxGeometry relative="1" as="geometry" />
        </mxCell>
        <mxCell id="Ds-Zj9vlohc3zKlkYxut-7" value="Instantiate emitter" style="rounded=1;whiteSpace=wrap;html=1;fillColor=none;" vertex="1" parent="Ds-Zj9vlohc3zKlkYxut-1">
          <mxGeometry x="90" y="60" width="120" height="60" as="geometry" />
        </mxCell>
        <mxCell id="Ds-Zj9vlohc3zKlkYxut-13" value="Emitter type" style="rounded=1;whiteSpace=wrap;html=1;fillColor=none;" vertex="1" parent="Ds-Zj9vlohc3zKlkYxut-1">
          <mxGeometry x="90" y="160" width="120" height="60" as="geometry" />
        </mxCell>
        <mxCell id="Ds-Zj9vlohc3zKlkYxut-21" style="edgeStyle=orthogonalEdgeStyle;rounded=0;orthogonalLoop=1;jettySize=auto;html=1;" edge="1" parent="Ds-Zj9vlohc3zKlkYxut-1" source="Ds-Zj9vlohc3zKlkYxut-19" target="Ds-Zj9vlohc3zKlkYxut-20">
          <mxGeometry relative="1" as="geometry" />
        </mxCell>
        <mxCell id="Ds-Zj9vlohc3zKlkYxut-19" value="Add effect" style="rounded=1;whiteSpace=wrap;html=1;fillColor=none;" vertex="1" parent="Ds-Zj9vlohc3zKlkYxut-1">
          <mxGeometry x="90" y="270" width="120" height="60" as="geometry" />
        </mxCell>
        <mxCell id="Ds-Zj9vlohc3zKlkYxut-20" value="effect type" style="rounded=1;whiteSpace=wrap;html=1;fillColor=none;" vertex="1" parent="Ds-Zj9vlohc3zKlkYxut-1">
          <mxGeometry x="90" y="360" width="120" height="60" as="geometry" />
        </mxCell>
        <mxCell id="Ds-Zj9vlohc3zKlkYxut-2" value="Update Particle system" style="swimlane;whiteSpace=wrap;html=1;" vertex="1" parent="1">
          <mxGeometry x="320" y="100" width="490" height="990" as="geometry" />
        </mxCell>
        <mxCell id="Ds-Zj9vlohc3zKlkYxut-4" value="instantiate particles" style="rounded=1;whiteSpace=wrap;html=1;fillColor=none;" vertex="1" parent="Ds-Zj9vlohc3zKlkYxut-2">
          <mxGeometry x="185" y="270" width="120" height="60" as="geometry" />
        </mxCell>
        <mxCell id="Ds-Zj9vlohc3zKlkYxut-12" style="edgeStyle=orthogonalEdgeStyle;rounded=0;orthogonalLoop=1;jettySize=auto;html=1;" edge="1" parent="Ds-Zj9vlohc3zKlkYxut-2" target="Ds-Zj9vlohc3zKlkYxut-11">
          <mxGeometry relative="1" as="geometry">
            <mxPoint x="285" y="180" as="sourcePoint" />
          </mxGeometry>
        </mxCell>
        <mxCell id="Ds-Zj9vlohc3zKlkYxut-22" style="edgeStyle=orthogonalEdgeStyle;rounded=0;orthogonalLoop=1;jettySize=auto;html=1;" edge="1" parent="Ds-Zj9vlohc3zKlkYxut-2" source="Ds-Zj9vlohc3zKlkYxut-8" target="Ds-Zj9vlohc3zKlkYxut-4">
          <mxGeometry relative="1" as="geometry" />
        </mxCell>
        <mxCell id="Ds-Zj9vlohc3zKlkYxut-8" value="Reached max&lt;br&gt;particles?" style="rhombus;whiteSpace=wrap;html=1;fillColor=none;" vertex="1" parent="Ds-Zj9vlohc3zKlkYxut-2">
          <mxGeometry x="205" y="140" width="80" height="80" as="geometry" />
        </mxCell>
        <mxCell id="Ds-Zj9vlohc3zKlkYxut-23" style="edgeStyle=orthogonalEdgeStyle;rounded=0;orthogonalLoop=1;jettySize=auto;html=1;entryX=1;entryY=0.5;entryDx=0;entryDy=0;" edge="1" parent="Ds-Zj9vlohc3zKlkYxut-2" source="Ds-Zj9vlohc3zKlkYxut-11" target="Ds-Zj9vlohc3zKlkYxut-4">
          <mxGeometry relative="1" as="geometry">
            <Array as="points">
              <mxPoint x="370" y="300" />
            </Array>
          </mxGeometry>
        </mxCell>
        <mxCell id="Ds-Zj9vlohc3zKlkYxut-11" value="adjust particle amount&lt;br&gt;(in emitter class)" style="rounded=1;whiteSpace=wrap;html=1;fillColor=none;" vertex="1" parent="Ds-Zj9vlohc3zKlkYxut-2">
          <mxGeometry x="320" y="200" width="120" height="60" as="geometry" />
        </mxCell>
        <mxCell id="Ds-Zj9vlohc3zKlkYxut-36" style="edgeStyle=orthogonalEdgeStyle;rounded=0;orthogonalLoop=1;jettySize=auto;html=1;" edge="1" parent="Ds-Zj9vlohc3zKlkYxut-2" source="Ds-Zj9vlohc3zKlkYxut-24" target="Ds-Zj9vlohc3zKlkYxut-30">
          <mxGeometry relative="1" as="geometry" />
        </mxCell>
        <mxCell id="Ds-Zj9vlohc3zKlkYxut-24" value="calc pos/vel" style="rounded=1;whiteSpace=wrap;html=1;fillColor=none;" vertex="1" parent="Ds-Zj9vlohc3zKlkYxut-2">
          <mxGeometry x="185" y="410" width="120" height="60" as="geometry" />
        </mxCell>
        <mxCell id="Ds-Zj9vlohc3zKlkYxut-29" value="Die" style="rounded=1;whiteSpace=wrap;html=1;fillColor=none;" vertex="1" parent="Ds-Zj9vlohc3zKlkYxut-2">
          <mxGeometry x="330" y="520" width="120" height="60" as="geometry" />
        </mxCell>
        <mxCell id="Ds-Zj9vlohc3zKlkYxut-31" style="edgeStyle=orthogonalEdgeStyle;rounded=0;orthogonalLoop=1;jettySize=auto;html=1;" edge="1" parent="Ds-Zj9vlohc3zKlkYxut-2" source="Ds-Zj9vlohc3zKlkYxut-30" target="Ds-Zj9vlohc3zKlkYxut-29">
          <mxGeometry relative="1" as="geometry" />
        </mxCell>
        <mxCell id="Ds-Zj9vlohc3zKlkYxut-37" style="edgeStyle=orthogonalEdgeStyle;rounded=0;orthogonalLoop=1;jettySize=auto;html=1;" edge="1" parent="Ds-Zj9vlohc3zKlkYxut-2" source="Ds-Zj9vlohc3zKlkYxut-30" target="Ds-Zj9vlohc3zKlkYxut-32">
          <mxGeometry relative="1" as="geometry">
            <Array as="points">
              <mxPoint x="245" y="650" />
              <mxPoint x="460" y="650" />
              <mxPoint x="460" y="70" />
            </Array>
          </mxGeometry>
        </mxCell>
        <mxCell id="Ds-Zj9vlohc3zKlkYxut-30" value="is dying?" style="rhombus;whiteSpace=wrap;html=1;fillColor=none;" vertex="1" parent="Ds-Zj9vlohc3zKlkYxut-2">
          <mxGeometry x="205" y="510" width="80" height="80" as="geometry" />
        </mxCell>
        <mxCell id="Ds-Zj9vlohc3zKlkYxut-32" value="" style="ellipse;whiteSpace=wrap;html=1;aspect=fixed;fillColor=#000000;" vertex="1" parent="Ds-Zj9vlohc3zKlkYxut-2">
          <mxGeometry x="230" y="60" width="30" height="30" as="geometry" />
        </mxCell>
        <mxCell id="Ds-Zj9vlohc3zKlkYxut-40" value="update" style="text;html=1;align=center;verticalAlign=middle;resizable=0;points=[];autosize=1;strokeColor=none;fillColor=none;" vertex="1" parent="Ds-Zj9vlohc3zKlkYxut-2">
          <mxGeometry x="215" y="30" width="60" height="30" as="geometry" />
        </mxCell>
        <mxCell id="Ds-Zj9vlohc3zKlkYxut-41" value="yes" style="text;html=1;align=center;verticalAlign=middle;resizable=0;points=[];autosize=1;strokeColor=none;fillColor=none;" vertex="1" parent="Ds-Zj9vlohc3zKlkYxut-2">
          <mxGeometry x="320" y="160" width="40" height="30" as="geometry" />
        </mxCell>
        <mxCell id="Ds-Zj9vlohc3zKlkYxut-14" style="edgeStyle=orthogonalEdgeStyle;rounded=0;orthogonalLoop=1;jettySize=auto;html=1;entryX=0;entryY=0.5;entryDx=0;entryDy=0;" edge="1" parent="1" source="Ds-Zj9vlohc3zKlkYxut-13" target="Ds-Zj9vlohc3zKlkYxut-8">
          <mxGeometry relative="1" as="geometry">
            <Array as="points">
              <mxPoint x="300" y="280" />
              <mxPoint x="300" y="280" />
            </Array>
          </mxGeometry>
        </mxCell>
        <mxCell id="Ds-Zj9vlohc3zKlkYxut-25" style="edgeStyle=orthogonalEdgeStyle;rounded=0;orthogonalLoop=1;jettySize=auto;html=1;entryX=1;entryY=0.5;entryDx=0;entryDy=0;" edge="1" parent="1" source="Ds-Zj9vlohc3zKlkYxut-4" target="Ds-Zj9vlohc3zKlkYxut-19">
          <mxGeometry relative="1" as="geometry" />
        </mxCell>
        <mxCell id="Ds-Zj9vlohc3zKlkYxut-26" style="edgeStyle=orthogonalEdgeStyle;rounded=0;orthogonalLoop=1;jettySize=auto;html=1;entryX=0.575;entryY=-0.017;entryDx=0;entryDy=0;entryPerimeter=0;" edge="1" parent="1" source="Ds-Zj9vlohc3zKlkYxut-20" target="Ds-Zj9vlohc3zKlkYxut-24">
          <mxGeometry relative="1" as="geometry" />
        </mxCell>
        <mxCell id="Ds-Zj9vlohc3zKlkYxut-33" style="edgeStyle=orthogonalEdgeStyle;rounded=0;orthogonalLoop=1;jettySize=auto;html=1;entryX=0.5;entryY=0;entryDx=0;entryDy=0;" edge="1" parent="1" source="Ds-Zj9vlohc3zKlkYxut-32" target="Ds-Zj9vlohc3zKlkYxut-7">
          <mxGeometry relative="1" as="geometry" />
        </mxCell>
        <mxCell id="Ds-Zj9vlohc3zKlkYxut-38" value="yes" style="text;html=1;align=center;verticalAlign=middle;resizable=0;points=[];autosize=1;strokeColor=none;fillColor=none;" vertex="1" parent="1">
          <mxGeometry x="600" y="625" width="40" height="30" as="geometry" />
        </mxCell>
        <mxCell id="Ds-Zj9vlohc3zKlkYxut-39" value="no" style="text;html=1;align=center;verticalAlign=middle;resizable=0;points=[];autosize=1;strokeColor=none;fillColor=none;" vertex="1" parent="1">
          <mxGeometry x="630" y="725" width="40" height="30" as="geometry" />
        </mxCell>
        <mxCell id="Ds-Zj9vlohc3zKlkYxut-42" value="no" style="text;html=1;align=center;verticalAlign=middle;resizable=0;points=[];autosize=1;strokeColor=none;fillColor=none;" vertex="1" parent="1">
          <mxGeometry x="560" y="325" width="40" height="30" as="geometry" />
        </mxCell>
      </root>
    </mxGraphModel>
  </diagram>
</mxfile>
